<svg width="1290" height="590" viewBox="0 0 1290 590" fill="none" xmlns="http://www.w3.org/2000/svg">
<g clip-path="url(#clip0_11295_5641)">
<path d="M200.534 183.29C185.375 175.038 168.055 170.909 148.565 170.909C131.547 170.909 116.083 173.99 102.162 180.138C88.2431 186.294 77.1048 194.77 68.7525 205.575V90.769H3.79492V423.932H68.7552V286.164C68.7552 266.355 73.9326 251.126 84.3009 240.467C94.6637 229.815 108.814 224.483 126.756 224.483C144.389 224.483 158.31 229.815 168.521 240.467C178.728 251.126 183.832 266.355 183.832 286.164V423.932H248.795V277.611C248.795 255.099 244.54 235.816 236.036 219.755C227.523 203.703 215.691 191.547 200.537 183.287L200.534 183.29Z" fill="#0000C0"/>
<path d="M520.004 186.222C502.211 175.718 482.339 170.465 460.378 170.465C441.505 170.465 424.722 174.222 410.033 181.721C395.336 189.226 383.815 198.985 375.462 210.985V90.7764H310.502V423.94H375.462V388.372C384.122 400.079 395.649 409.608 410.033 416.963C424.417 424.315 441.193 427.992 460.378 427.992C482.339 427.992 502.211 422.591 520.004 411.784C537.788 400.979 551.862 385.748 562.23 366.084C572.593 346.431 577.776 323.84 577.776 298.327C577.776 272.814 572.593 250.379 562.23 231.019C551.862 211.659 537.791 196.731 520.004 186.222ZM501.909 337.947C495.564 349.055 487.212 357.611 476.852 363.611C466.483 369.619 455.275 372.615 443.211 372.615C431.453 372.615 420.393 369.69 410.036 363.835C399.665 357.983 391.315 349.504 384.979 338.398C378.635 327.296 375.465 314.242 375.465 299.23C375.465 284.218 378.635 271.169 384.979 260.061C391.315 248.961 399.665 240.477 410.036 234.624C420.396 228.772 431.453 225.845 443.211 225.845C455.277 225.845 466.486 228.701 476.852 234.4C487.212 240.105 495.564 248.433 501.909 259.385C508.245 270.346 511.42 283.325 511.42 298.33C511.42 313.638 508.245 326.847 501.909 337.947Z" fill="#0000C0"/>
<path d="M684.495 372.162L797.713 225.389V174.513H611.177V226.289H723.005L610.717 373.062V423.938H799.106V372.162H684.495Z" fill="#0000C0"/>
<path fill-rule="evenodd" clip-rule="evenodd" d="M1164.17 297.946C1150.65 284.615 1136.23 272.129 1121.02 260.594C1109.13 251.566 1096.72 243.119 1083.91 235.331C1066.61 224.799 1048.49 215.401 1029.69 207.271C1013.64 200.328 997.094 194.283 980.09 189.241C939.471 177.125 896.349 170.604 851.677 170.604V226.646C892.677 226.646 932.153 232.955 969.18 244.65C992.333 251.962 1014.53 261.386 1035.54 272.684C1049.66 280.26 1063.23 288.707 1076.18 297.946C1092.13 309.244 1107.12 321.757 1121.02 335.299C1189.71 402.137 1232.24 494.265 1232.24 595.895H1290C1290 479.984 1241.95 374.737 1164.17 297.946ZM1083.91 360.566C1069.03 346.734 1052.84 334.222 1035.54 323.214C1020.46 313.605 1004.52 305.132 987.898 297.951C946.246 279.948 900.158 269.944 851.677 269.944V325.959C893.629 325.959 933.459 335.014 969.18 351.248C991.027 361.147 1011.35 373.765 1029.69 388.627C1090.87 438.149 1129.89 512.695 1129.89 595.9H1187.65C1187.65 503.483 1147.79 419.934 1083.91 360.566ZM851.677 369.247C899.07 369.247 943.226 383.026 980.09 406.652C1043.43 447.225 1085.27 516.915 1085.27 595.896H1027.51C1027.51 501.815 948.64 425.289 851.677 425.289V369.247Z" fill="#0000C0"/>
<path fill-rule="evenodd" clip-rule="evenodd" d="M1232.24 0C1232.24 101.631 1189.71 193.758 1121.02 260.596C1107.12 274.138 1092.13 286.651 1076.18 297.949C1063.23 307.188 1049.66 315.635 1035.54 323.211C1014.53 334.51 992.333 343.934 969.18 351.246C932.153 362.94 892.677 369.249 851.677 369.249V425.291C896.349 425.291 939.471 418.771 980.09 406.654C997.094 401.612 1013.64 395.567 1029.69 388.625C1048.49 380.494 1066.61 371.097 1083.91 360.564C1096.72 352.777 1109.13 344.329 1121.02 335.302C1136.23 323.792 1150.65 311.306 1164.17 297.949C1241.95 221.185 1290 115.938 1290 0H1232.24ZM1035.54 272.687C1052.84 261.679 1069.03 249.166 1083.91 235.334C1147.79 175.966 1187.65 92.4178 1187.65 0H1129.89C1129.89 83.2314 1090.87 157.752 1029.69 207.276C1011.35 222.164 991.027 234.756 969.18 244.655C933.459 260.889 893.629 269.944 851.677 269.944V325.959C900.158 325.959 946.246 315.955 987.898 297.952C1004.52 290.772 1020.46 282.295 1035.54 272.687ZM1027.51 0H1085.27C1085.27 78.9814 1043.43 148.671 980.09 189.244C943.226 212.87 899.07 226.649 851.677 226.649V170.607C948.64 170.607 1027.51 94.0808 1027.51 0Z" fill="#FF7800"/>
</g>
<defs>
<clipPath id="clip0_11295_5641">
<rect width="1290" height="590" fill="white"/>
</clipPath>
</defs>
</svg>
